<svg xmlns="http://www.w3.org/2000/svg" viewBox="0 0 493.4 149.46"><defs><style>.cls-1{fill:#fff;}</style></defs><title>Asset 3</title><g id="Layer_2" data-name="Layer 2"><g id="Layer_1-2" data-name="Layer 1"><path class="cls-1" d="M74.73,0C31.44,0,0,31.44,0,74.73s31.44,74.73,74.73,74.73S149.46,118,149.46,74.73,118,0,74.73,0ZM113,58.33H80.2L113,113H36.45L69.26,58.33H36.45V36.45H113Z"/><polygon class="cls-1" points="181.78 49.33 206.22 49.33 206.22 112.1 219.65 112.1 219.65 49.33 244.09 49.33 244.09 36.3 181.78 36.3 181.78 49.33"/><path class="cls-1" d="M288.9,35.29c-22.63,0-39.06,16.37-39.06,38.91s16.43,38.9,39.06,38.9S328,96.74,328,74.2,311.53,35.29,288.9,35.29Zm0,64.63c-14.82,0-25.17-10.58-25.17-25.72s10.35-25.73,25.17-25.73,25.22,10.58,25.22,25.73S303.75,99.92,288.9,99.92Z"/><path class="cls-1" d="M373.05,36.3H343.84v75.8h29.21c24.45,0,40.26-14.88,40.26-37.9S397.5,36.3,373.05,36.3Zm0,62.77H357.33V49.33h15.72c16.76,0,26.37,9.06,26.37,24.87S389.81,99.07,373.05,99.07Z"/><path class="cls-1" d="M462.27,36.3H448.65l-31.14,75.8h14.24l7.95-19.62h31.22l8,19.62H493.4ZM445,79.45l10.32-25.33,10.33,25.33Z"/></g></g></svg>